<svg xmlns="http://www.w3.org/2000/svg">
    <symbol id="circle"  width="301" height="301" viewBox="0 0 301 301">
        <circle
            style="fill:var(--color, #4C4C4C)"
            cx="150.5" cy="150.5" r="150.5"
        />
    </symbol>
    <symbol id="circleHalf"  width="164" height="301" viewBox="0 0 164 301">
        <circle
            style="fill:var(--color, #4C4C4C)" 
            cx="13.5" cy="150.5" r="150.5" fill-opacity="1"
        />
    </symbol>
    <symbol id="roundCakeCenter" width="42" height="39" viewBox="0 0 42 39">
        <path 
            style="fill:var(--color, #4C4C4C)"
             d="M0.937524 19.5246C0.937524 23.6642 2.3318 27.6946 4.9153 31.0229C7.49879 34.3512 11.1351 36.8019 15.2895 38.0144C19.4439 39.2269 23.8971 39.1374 27.994 37.7589C32.091 36.3803 35.6155 33.7857 38.0493 30.3564C40.483 26.9271 41.6975 22.8443 41.5141 18.7084C41.3308 14.5725 39.7592 10.6018 37.0305 7.38036C34.3019 4.15888 30.5602 1.85664 26.3558 0.81224C22.1514 -0.232158 17.7062 0.0364042 13.6739 1.57843L21.2349 19.5246L0.937524 19.5246Z"
        />
    </symbol>
    <symbol id="roundCakeOpen" width="145" height="145" viewBox="0 0 145 145">
        <path 
            style="fill:var(--color, #4C4C4C)"
            d="M71.9951 144.836C87.4067 145.017 102.47 140.247 114.969 131.229C127.468 122.211 136.743 109.42 141.43 94.7372C146.118 80.0546 145.97 64.2553 141.008 49.663C136.047 35.0707 126.533 22.4556 113.868 13.6731C101.202 4.89067 86.0522 0.404341 70.6467 0.873978C55.2411 1.34362 40.3929 6.74443 28.2856 16.2821C16.1784 25.8198 7.45135 38.9909 3.38791 53.8583C-0.675532 68.7257 0.139152 84.5047 5.71214 98.8746L72.8406 72.8405L71.9951 144.836Z"
        />
    </symbol>
    <symbol id="roundCake" width="208" height="201" viewBox="0 0 208 201">
        <circle style="fill:var(--color, #4C4C4C)" cx="180" cy="71" r="16" fill-opacity="1"/>
        <path
            style="fill:var(--color, #4C4C4C)"
           d="M208 100.5C208 123.751 199.657 146.283 184.393 164.257C169.129 182.23 147.888 194.533 124.289 199.069C100.691 203.605 76.1946 200.094 54.9747 189.133C33.7549 178.173 17.1243 160.441 7.91653 138.96C-1.2912 117.478 -2.50632 93.5764 4.4782 71.3264C11.4627 49.0764 26.2147 29.855 46.2207 16.9373C66.2266 4.01963 90.2487 -1.79508 114.194 0.483934C138.139 2.76295 160.525 12.9947 177.539 29.4358L104 100.5H208Z"
        />
    </symbol>

    <symbol id="circleCutDown" width="193" height="219" viewBox="0 0 193 219" fill="none">
        <circle 
            style="fill:var(--color, #4C4C4C)"
            cx="150.5" cy="150.5" r="150.5"  fill-opacity="1"
        />
    </symbol>

    <symbol id="roundCakeRightBottom" width="49" height="47" viewBox="0 0 49 47">
        <path 
            style="fill:var(--color, #4C4C4C)"
            d="M0.410171 26.0221C0.926053 30.9378 3.08398 35.5499 6.56657 39.1802C10.0492 42.8105 14.6726 45.2674 19.7569 46.1896C24.8412 47.1117 30.118 46.4504 34.8112 44.3028C39.5044 42.1553 43.3664 38.635 45.829 34.2596C48.2916 29.8842 49.225 24.8846 48.4918 19.9962C47.7586 15.1078 45.3976 10.5886 41.7559 7.1033C38.1143 3.61794 33.3843 1.35041 28.2615 0.634176C23.1388 -0.0820551 17.8937 0.790823 13.2978 3.12444L24.5126 23.4927L0.410171 26.0221Z"
        />
    </symbol>

    <symbol id="logo" width="348" height="73" viewBox="0 0 348 73">
        <path d="M334.158 20.375C333.84 17.3978 332.499 15.0796 330.135 13.4205C327.794 11.7614 324.749 10.9318 320.999 10.9318C318.362 10.9318 316.101 11.3296 314.215 12.125C312.328 12.9205 310.885 14 309.885 15.3637C308.885 16.7273 308.374 18.2841 308.351 20.0341C308.351 21.4887 308.681 22.75 309.34 23.8182C310.021 24.8864 310.942 25.7955 312.101 26.5455C313.26 27.2728 314.544 27.8864 315.953 28.3864C317.362 28.8864 318.783 29.3068 320.215 29.6478L326.76 31.2841C329.396 31.8978 331.931 32.7273 334.362 33.7728C336.817 34.8182 339.01 36.1364 340.942 37.7273C342.896 39.3182 344.442 41.2387 345.578 43.4887C346.715 45.7387 347.283 48.375 347.283 51.3978C347.283 55.4887 346.237 59.0909 344.146 62.2046C342.056 65.2955 339.033 67.7159 335.078 69.4659C331.146 71.1932 326.385 72.0568 320.794 72.0568C315.362 72.0568 310.646 71.2159 306.646 69.5341C302.669 67.8523 299.556 65.3978 297.306 62.1705C295.078 58.9432 293.874 55.0114 293.692 50.375H306.135C306.317 52.8068 307.067 54.8296 308.385 56.4432C309.703 58.0568 311.419 59.2614 313.533 60.0568C315.669 60.8523 318.056 61.25 320.692 61.25C323.442 61.25 325.851 60.8409 327.919 60.0228C330.01 59.1818 331.646 58.0228 332.828 56.5455C334.01 55.0455 334.612 53.2955 334.635 51.2955C334.612 49.4773 334.078 47.9773 333.033 46.7955C331.987 45.5909 330.521 44.5909 328.635 43.7955C326.771 42.9773 324.59 42.25 322.09 41.6137L314.146 39.5682C308.396 38.0909 303.851 35.8523 300.51 32.8523C297.192 29.8296 295.533 25.8182 295.533 20.8182C295.533 16.7046 296.646 13.1023 298.874 10.0114C301.124 6.92048 304.181 4.52275 308.044 2.8182C311.908 1.09093 316.283 0.227295 321.169 0.227295C326.124 0.227295 330.465 1.09093 334.192 2.8182C337.942 4.52275 340.885 6.89775 343.021 9.9432C345.158 12.9659 346.26 16.4432 346.328 20.375H334.158Z" fill="#FFCBCB"/>
        <path d="M264.158 20.375C263.84 17.3978 262.499 15.0796 260.135 13.4205C257.794 11.7614 254.749 10.9318 250.999 10.9318C248.362 10.9318 246.101 11.3296 244.215 12.125C242.328 12.9205 240.885 14 239.885 15.3637C238.885 16.7273 238.374 18.2841 238.351 20.0341C238.351 21.4887 238.681 22.75 239.34 23.8182C240.021 24.8864 240.942 25.7955 242.101 26.5455C243.26 27.2728 244.544 27.8864 245.953 28.3864C247.362 28.8864 248.783 29.3068 250.215 29.6478L256.76 31.2841C259.396 31.8978 261.931 32.7273 264.362 33.7728C266.817 34.8182 269.01 36.1364 270.942 37.7273C272.896 39.3182 274.442 41.2387 275.578 43.4887C276.715 45.7387 277.283 48.375 277.283 51.3978C277.283 55.4887 276.237 59.0909 274.146 62.2046C272.056 65.2955 269.033 67.7159 265.078 69.4659C261.146 71.1932 256.385 72.0568 250.794 72.0568C245.362 72.0568 240.646 71.2159 236.646 69.5341C232.669 67.8523 229.556 65.3978 227.306 62.1705C225.078 58.9432 223.874 55.0114 223.692 50.375H236.135C236.317 52.8068 237.067 54.8296 238.385 56.4432C239.703 58.0568 241.419 59.2614 243.533 60.0568C245.669 60.8523 248.056 61.25 250.692 61.25C253.442 61.25 255.851 60.8409 257.919 60.0228C260.01 59.1818 261.646 58.0228 262.828 56.5455C264.01 55.0455 264.612 53.2955 264.635 51.2955C264.612 49.4773 264.078 47.9773 263.033 46.7955C261.987 45.5909 260.521 44.5909 258.635 43.7955C256.771 42.9773 254.59 42.25 252.09 41.6137L244.146 39.5682C238.396 38.0909 233.851 35.8523 230.51 32.8523C227.192 29.8296 225.533 25.8182 225.533 20.8182C225.533 16.7046 226.646 13.1023 228.874 10.0114C231.124 6.92048 234.181 4.52275 238.044 2.8182C241.908 1.09093 246.283 0.227295 251.169 0.227295C256.124 0.227295 260.465 1.09093 264.192 2.8182C267.942 4.52275 270.885 6.89775 273.021 9.9432C275.158 12.9659 276.26 16.4432 276.328 20.375H264.158Z" fill="#FFCBCB"/>
        <path d="M160.23 71V1.18182H205.639V11.7841H172.878V30.7386H203.287V41.3409H172.878V60.3977H205.912V71H160.23Z" fill="#FFCBCB"/>
        <path d="M126.194 1.18182H138.842V46.7955C138.842 51.7955 137.66 56.1932 135.297 59.9886C132.956 63.7841 129.66 66.75 125.41 68.8864C121.16 71 116.194 72.0568 110.513 72.0568C104.808 72.0568 99.8308 71 95.5808 68.8864C91.3308 66.75 88.0354 63.7841 85.6945 59.9886C83.3536 56.1932 82.1831 51.7955 82.1831 46.7955V1.18182H94.8308V45.7386C94.8308 48.6477 95.4672 51.2386 96.7399 53.5114C98.0354 55.7841 99.8536 57.5682 102.194 58.8636C104.535 60.1364 107.308 60.7727 110.513 60.7727C113.717 60.7727 116.49 60.1364 118.831 58.8636C121.194 57.5682 123.013 55.7841 124.285 53.5114C125.558 51.2386 126.194 48.6477 126.194 45.7386V1.18182Z" fill="#FFCBCB"/>
        <path d="M48.9249 23.4773C48.3567 21.6364 47.5726 19.9887 46.5726 18.5341C45.5953 17.0568 44.4135 15.7955 43.0271 14.75C41.6635 13.7046 40.0953 12.9205 38.3226 12.3977C36.5499 11.8523 34.618 11.5796 32.5271 11.5796C28.7771 11.5796 25.4362 12.5228 22.5044 14.4091C19.5726 16.2955 17.2658 19.0682 15.5839 22.7273C13.9248 26.3637 13.0953 30.7955 13.0953 36.0228C13.0953 41.2955 13.9248 45.7614 15.5839 49.4205C17.243 53.0796 19.5499 55.8637 22.5044 57.7728C25.4589 59.6591 28.8908 60.6023 32.7999 60.6023C36.3453 60.6023 39.4135 59.9205 42.0044 58.5568C44.618 57.1932 46.6294 55.2614 48.0385 52.7614C49.3858 50.3493 50.089 47.5425 50.1481 44.3409H34.0612V34.4546H62.3908V42.8409C62.3908 48.8182 61.118 53.9887 58.5726 58.3523C56.0271 62.7159 52.5271 66.0796 48.0726 68.4432C43.618 70.7841 38.5044 71.9546 32.7317 71.9546C26.2999 71.9546 20.6521 70.5114 15.7885 67.625C10.9476 64.7159 7.16349 60.5909 4.43621 55.25C1.73167 49.8864 0.379395 43.5228 0.379395 36.1591C0.379395 30.5228 1.17485 25.4887 2.76576 21.0568C4.37939 16.625 6.6294 12.8637 9.51576 9.77275C12.4021 6.65911 15.7885 4.29548 19.6749 2.68184C23.5612 1.04548 27.7885 0.227295 32.3567 0.227295C36.2203 0.227295 39.8226 0.795477 43.1635 1.93184C46.5044 3.04548 49.4703 4.63639 52.0612 6.70457C54.6748 8.77275 56.8226 11.2273 58.5044 14.0682C60.1862 16.9091 61.2885 20.0455 61.8112 23.4773H48.9249Z" fill="#FFCBCB"/>
    </symbol>


</svg>





